<?xml version="1.0" encoding="UTF-8" standalone="no"?>
<!DOCTYPE svg PUBLIC "-//W3C//DTD SVG 1.1//EN"
 "http://www.w3.org/Graphics/SVG/1.1/DTD/svg11.dtd">
<!-- Generated by graphviz version 3.0.0 (20220226.1711)
 -->
<!-- Pages: 1 -->
<svg width="241pt" height="785pt"
 viewBox="0.00 0.00 241.15 785.00" xmlns="http://www.w3.org/2000/svg" xmlns:xlink="http://www.w3.org/1999/xlink">
<g id="graph0" class="graph" transform="scale(1 1) rotate(0) translate(4 781)">
<polygon fill="white" stroke="transparent" points="-4,4 -4,-781 237.15,-781 237.15,4 -4,4"/>
<!-- i0 -->
<g id="node1" class="node">
<title>i0</title>
<polygon fill="none" stroke="green" points="22.27,-753.44 55.15,-741 88.03,-753.44 88,-773.56 22.3,-773.56 22.27,-753.44"/>
<text text-anchor="middle" x="55.15" y="-755.3" font-family="Times New Roman,serif" font-size="14.00">start</text>
</g>
<!-- i1 -->
<g id="node2" class="node">
<title>i1</title>
<ellipse fill="none" stroke="black" cx="55.15" cy="-686" rx="46.59" ry="18"/>
<text text-anchor="middle" x="55.15" y="-682.3" font-family="Times New Roman,serif" font-size="14.00">decl_atrib</text>
</g>
<!-- i0&#45;&gt;i1 -->
<g id="edge14" class="edge">
<title>i0&#45;&gt;i1</title>
<path fill="none" stroke="black" d="M55.15,-740.81C55.15,-732.79 55.15,-723.05 55.15,-714.07"/>
<polygon fill="black" stroke="black" points="58.65,-714.03 55.15,-704.03 51.65,-714.03 58.65,-714.03"/>
</g>
<!-- i2 -->
<g id="node3" class="node">
<title>i2</title>
<ellipse fill="none" stroke="black" cx="55.15" cy="-613" rx="46.59" ry="18"/>
<text text-anchor="middle" x="55.15" y="-609.3" font-family="Times New Roman,serif" font-size="14.00">decl_atrib</text>
</g>
<!-- i1&#45;&gt;i2 -->
<g id="edge1" class="edge">
<title>i1&#45;&gt;i2</title>
<path fill="none" stroke="black" d="M55.15,-667.81C55.15,-659.79 55.15,-650.05 55.15,-641.07"/>
<polygon fill="black" stroke="black" points="58.65,-641.03 55.15,-631.03 51.65,-641.03 58.65,-641.03"/>
</g>
<!-- i3 -->
<g id="node4" class="node">
<title>i3</title>
<ellipse fill="none" stroke="black" cx="55.15" cy="-540" rx="46.59" ry="18"/>
<text text-anchor="middle" x="55.15" y="-536.3" font-family="Times New Roman,serif" font-size="14.00">decl_atrib</text>
</g>
<!-- i2&#45;&gt;i3 -->
<g id="edge2" class="edge">
<title>i2&#45;&gt;i3</title>
<path fill="none" stroke="black" d="M55.15,-594.81C55.15,-586.79 55.15,-577.05 55.15,-568.07"/>
<polygon fill="black" stroke="black" points="58.65,-568.03 55.15,-558.03 51.65,-568.03 58.65,-568.03"/>
</g>
<!-- i4 -->
<g id="node5" class="node">
<title>i4</title>
<polygon fill="none" stroke="black" points="55.15,-485 -0.15,-467 55.15,-449 110.45,-467 55.15,-485"/>
<text text-anchor="middle" x="55.15" y="-463.3" font-family="Times New Roman,serif" font-size="14.00">cond_if</text>
</g>
<!-- i3&#45;&gt;i4 -->
<g id="edge10" class="edge">
<title>i3&#45;&gt;i4</title>
<path fill="none" stroke="black" d="M55.15,-521.81C55.15,-513.79 55.15,-504.05 55.15,-495.07"/>
<polygon fill="black" stroke="black" points="58.65,-495.03 55.15,-485.03 51.65,-495.03 58.65,-495.03"/>
</g>
<!-- i5 -->
<g id="node6" class="node">
<title>i5</title>
<ellipse fill="none" stroke="black" cx="30.15" cy="-326" rx="27" ry="18"/>
</g>
<!-- i4&#45;&gt;i5 -->
<g id="edge3" class="edge">
<title>i4&#45;&gt;i5</title>
<path fill="none" stroke="black" d="M52.23,-449.78C48.01,-426.29 40.13,-382.49 35.01,-354.05"/>
<polygon fill="black" stroke="black" points="38.42,-353.2 33.2,-343.98 31.53,-354.44 38.42,-353.2"/>
<text text-anchor="middle" x="62.65" y="-419.8" font-family="Times New Roman,serif" font-size="14.00">True</text>
</g>
<!-- i6 -->
<g id="node7" class="node">
<title>i6</title>
<polygon fill="none" stroke="black" points="140.15,-398 58.54,-380 140.15,-362 221.76,-380 140.15,-398"/>
<text text-anchor="middle" x="140.15" y="-376.3" font-family="Times New Roman,serif" font-size="14.00">cond_else_if</text>
</g>
<!-- i4&#45;&gt;i6 -->
<g id="edge4" class="edge">
<title>i4&#45;&gt;i6</title>
<path fill="none" stroke="black" d="M68.06,-453.09C81.47,-439.68 102.68,-418.47 118.63,-402.52"/>
<polygon fill="black" stroke="black" points="121.39,-404.71 125.98,-395.17 116.44,-399.76 121.39,-404.71"/>
<text text-anchor="middle" x="117.15" y="-419.8" font-family="Times New Roman,serif" font-size="14.00">False</text>
</g>
<!-- i11 -->
<g id="node12" class="node">
<title>i11</title>
<ellipse fill="none" stroke="black" cx="132.15" cy="-18" rx="27" ry="18"/>
<text text-anchor="middle" x="132.15" y="-14.3" font-family="Times New Roman,serif" font-size="14.00">atrib</text>
</g>
<!-- i5&#45;&gt;i11 -->
<g id="edge11" class="edge">
<title>i5&#45;&gt;i11</title>
<path fill="none" stroke="black" d="M30.15,-307.74C30.15,-286.76 30.15,-250.28 30.15,-219 30.15,-219 30.15,-219 30.15,-90 30.15,-56.46 67.75,-37.48 97.29,-27.74"/>
<polygon fill="black" stroke="black" points="98.4,-31.06 106.94,-24.78 96.35,-24.36 98.4,-31.06"/>
</g>
<!-- i7 -->
<g id="node8" class="node">
<title>i7</title>
<polygon fill="none" stroke="black" points="123.15,-290 67.85,-272 123.15,-254 178.45,-272 123.15,-290"/>
<text text-anchor="middle" x="123.15" y="-268.3" font-family="Times New Roman,serif" font-size="14.00">cond_if</text>
</g>
<!-- i6&#45;&gt;i7 -->
<g id="edge8" class="edge">
<title>i6&#45;&gt;i7</title>
<path fill="none" stroke="black" d="M137.49,-362.44C134.79,-345.56 130.55,-319.12 127.38,-299.36"/>
<polygon fill="black" stroke="black" points="130.83,-298.77 125.79,-289.45 123.91,-299.87 130.83,-298.77"/>
<text text-anchor="middle" x="147.65" y="-322.3" font-family="Times New Roman,serif" font-size="14.00">True</text>
</g>
<!-- i10 -->
<g id="node11" class="node">
<title>i10</title>
<ellipse fill="none" stroke="black" cx="206.15" cy="-218" rx="27" ry="18"/>
</g>
<!-- i6&#45;&gt;i10 -->
<g id="edge9" class="edge">
<title>i6&#45;&gt;i10</title>
<path fill="none" stroke="black" d="M151.65,-364.51C156.2,-358.4 161.26,-351.06 165.15,-344 182.58,-312.35 194.13,-272.08 200.4,-245.93"/>
<polygon fill="black" stroke="black" points="203.86,-246.52 202.7,-235.99 197.04,-244.95 203.86,-246.52"/>
<text text-anchor="middle" x="196.15" y="-322.3" font-family="Times New Roman,serif" font-size="14.00">False</text>
</g>
<!-- i8 -->
<g id="node9" class="node">
<title>i8</title>
<ellipse fill="none" stroke="black" cx="85.15" cy="-164" rx="27" ry="18"/>
<text text-anchor="middle" x="85.15" y="-160.3" font-family="Times New Roman,serif" font-size="14.00">atrib</text>
</g>
<!-- i7&#45;&gt;i8 -->
<g id="edge5" class="edge">
<title>i7&#45;&gt;i8</title>
<path fill="none" stroke="black" d="M115.87,-256.19C112.97,-250.02 109.72,-242.74 107.15,-236 101.61,-221.49 96.42,-204.94 92.47,-191.46"/>
<polygon fill="black" stroke="black" points="95.83,-190.49 89.71,-181.85 89.11,-192.42 95.83,-190.49"/>
<text text-anchor="middle" x="120.65" y="-214.3" font-family="Times New Roman,serif" font-size="14.00">True</text>
</g>
<!-- i9 -->
<g id="node10" class="node">
<title>i9</title>
<ellipse fill="none" stroke="black" cx="132.15" cy="-91" rx="27" ry="18"/>
<text text-anchor="middle" x="132.15" y="-87.3" font-family="Times New Roman,serif" font-size="14.00">atrib</text>
</g>
<!-- i7&#45;&gt;i9 -->
<g id="edge7" class="edge">
<title>i7&#45;&gt;i9</title>
<path fill="none" stroke="black" d="M129.12,-255.56C131.14,-249.55 133.14,-242.55 134.15,-236 140.34,-195.68 137.82,-148.26 135.19,-119.17"/>
<polygon fill="black" stroke="black" points="138.65,-118.59 134.19,-108.97 131.68,-119.27 138.65,-118.59"/>
<text text-anchor="middle" x="152.15" y="-160.3" font-family="Times New Roman,serif" font-size="14.00">False</text>
</g>
<!-- i8&#45;&gt;i9 -->
<g id="edge6" class="edge">
<title>i8&#45;&gt;i9</title>
<path fill="none" stroke="black" d="M95.58,-147.24C101.6,-138.14 109.31,-126.5 116.09,-116.26"/>
<polygon fill="black" stroke="black" points="119.15,-117.98 121.75,-107.71 113.31,-114.12 119.15,-117.98"/>
</g>
<!-- i9&#45;&gt;i11 -->
<g id="edge12" class="edge">
<title>i9&#45;&gt;i11</title>
<path fill="none" stroke="black" d="M132.15,-72.81C132.15,-64.79 132.15,-55.05 132.15,-46.07"/>
<polygon fill="black" stroke="black" points="135.65,-46.03 132.15,-36.03 128.65,-46.03 135.65,-46.03"/>
</g>
<!-- i10&#45;&gt;i11 -->
<g id="edge13" class="edge">
<title>i10&#45;&gt;i11</title>
<path fill="none" stroke="black" d="M203.53,-199.98C198.89,-172.4 187.79,-116.62 168.15,-73 163.38,-62.41 156.62,-51.6 150.24,-42.45"/>
<polygon fill="black" stroke="black" points="153.01,-40.32 144.32,-34.26 147.34,-44.42 153.01,-40.32"/>
</g>
</g>
</svg>
