<?xml version="1.0" encoding="UTF-8" standalone="no"?>
<!DOCTYPE svg PUBLIC "-//W3C//DTD SVG 1.1//EN"
 "http://www.w3.org/Graphics/SVG/1.1/DTD/svg11.dtd">
<!-- Generated by graphviz version 2.50.0 (20211204.2007)
 -->
<!-- Pages: 1 -->
<svg width="722pt" height="44pt"
 viewBox="0.00 0.00 721.94 44.00" xmlns="http://www.w3.org/2000/svg" xmlns:xlink="http://www.w3.org/1999/xlink">
<g id="graph0" class="graph" transform="scale(1 1) rotate(0) translate(4 40)">
<polygon fill="white" stroke="transparent" points="-4,4 -4,-40 717.94,-40 717.94,4 -4,4"/>
<!-- i0 -->
<g id="node1" class="node">
<title>i0</title>
<ellipse fill="none" stroke="black" cx="27" cy="-18" rx="27" ry="18"/>
<text text-anchor="middle" x="27" y="-14.3" font-family="Times New Roman,serif" font-size="14.00">i0</text>
</g>
<!-- i1 -->
<g id="node2" class="node">
<title>i1</title>
<ellipse fill="none" stroke="black" cx="99" cy="-18" rx="27" ry="18"/>
<text text-anchor="middle" x="99" y="-14.3" font-family="Times New Roman,serif" font-size="14.00">i1</text>
</g>
<!-- i2 -->
<g id="node3" class="node">
<title>i2</title>
<ellipse fill="none" stroke="black" cx="171" cy="-18" rx="27" ry="18"/>
<text text-anchor="middle" x="171" y="-14.3" font-family="Times New Roman,serif" font-size="14.00">i2</text>
</g>
<!-- i3 -->
<g id="node4" class="node">
<title>i3</title>
<polygon fill="none" stroke="black" points="243,-36 216,-18 243,0 270,-18 243,-36"/>
<text text-anchor="middle" x="243" y="-14.3" font-family="Times New Roman,serif" font-size="14.00">i3</text>
</g>
<!-- i4 -->
<g id="node5" class="node">
<title>i4</title>
<polygon fill="none" stroke="black" points="315,-36 288,-18 315,0 342,-18 315,-36"/>
<text text-anchor="middle" x="315" y="-14.3" font-family="Times New Roman,serif" font-size="14.00">i4</text>
</g>
<!-- i5 -->
<g id="node6" class="node">
<title>i5</title>
<polygon fill="none" stroke="black" points="387,-36 360,-18 387,0 414,-18 387,-36"/>
<text text-anchor="middle" x="387" y="-14.3" font-family="Times New Roman,serif" font-size="14.00">i5</text>
</g>
<!-- i6 -->
<g id="node7" class="node">
<title>i6</title>
<ellipse fill="none" stroke="black" cx="459" cy="-18" rx="27" ry="18"/>
<text text-anchor="middle" x="459" y="-14.3" font-family="Times New Roman,serif" font-size="14.00">i6</text>
</g>
<!-- i7 -->
<g id="node8" class="node">
<title>i7</title>
<ellipse fill="none" stroke="black" cx="531" cy="-18" rx="27" ry="18"/>
<text text-anchor="middle" x="531" y="-14.3" font-family="Times New Roman,serif" font-size="14.00">i7</text>
</g>
<!-- i8 -->
<g id="node9" class="node">
<title>i8</title>
<polygon fill="none" stroke="black" points="603,-36 576,-18 603,0 630,-18 603,-36"/>
<text text-anchor="middle" x="603" y="-14.3" font-family="Times New Roman,serif" font-size="14.00">i8</text>
</g>
<!-- start -->
<g id="node10" class="node">
<title>start</title>
<polygon fill="none" stroke="green" points="648.12,-12.44 681,0 713.88,-12.44 713.85,-32.56 648.15,-32.56 648.12,-12.44"/>
<text text-anchor="middle" x="681" y="-14.3" font-family="Times New Roman,serif" font-size="14.00">start</text>
</g>
</g>
</svg>
