<?xml version="1.0" encoding="UTF-8" standalone="no"?>
<!DOCTYPE svg PUBLIC "-//W3C//DTD SVG 1.1//EN"
 "http://www.w3.org/Graphics/SVG/1.1/DTD/svg11.dtd">
<!-- Generated by graphviz version 2.50.0 (20211204.2007)
 -->
<!-- Pages: 1 -->
<svg width="309pt" height="332pt"
 viewBox="0.00 0.00 308.64 332.00" xmlns="http://www.w3.org/2000/svg" xmlns:xlink="http://www.w3.org/1999/xlink">
<g id="graph0" class="graph" transform="scale(1 1) rotate(0) translate(4 328)">
<polygon fill="white" stroke="transparent" points="-4,4 -4,-328 304.64,-328 304.64,4 -4,4"/>
<!-- i0 -->
<g id="node1" class="node">
<title>i0</title>
<polygon fill="none" stroke="green" points="119.42,-300.44 152.3,-288 185.17,-300.44 185.14,-320.56 119.45,-320.56 119.42,-300.44"/>
<text text-anchor="middle" x="152.3" y="-302.3" font-family="Times New Roman,serif" font-size="14.00">start</text>
</g>
<!-- i1 -->
<g id="node2" class="node">
<title>i1</title>
<ellipse fill="none" stroke="black" cx="40.3" cy="-234" rx="40.09" ry="18"/>
<text text-anchor="middle" x="40.3" y="-230.3" font-family="Times New Roman,serif" font-size="14.00">int a = 0</text>
</g>
<!-- i0&#45;&gt;i1 -->
<g id="edge5" class="edge">
<title>i0&#45;&gt;i1</title>
<path fill="none" stroke="black" d="M135.29,-294.37C118.44,-283.84 92.25,-267.47 71.64,-254.59"/>
<polygon fill="black" stroke="black" points="73.23,-251.46 62.9,-249.13 69.52,-257.39 73.23,-251.46"/>
</g>
<!-- i2 -->
<g id="node3" class="node">
<title>i2</title>
<ellipse fill="none" stroke="blue" cx="152.3" cy="-234" rx="53.89" ry="18"/>
<text text-anchor="middle" x="152.3" y="-230.3" font-family="Times New Roman,serif" font-size="14.00">do while (a)</text>
</g>
<!-- i0&#45;&gt;i2 -->
<g id="edge6" class="edge">
<title>i0&#45;&gt;i2</title>
<path fill="none" stroke="black" d="M152.3,-287.7C152.3,-279.98 152.3,-270.71 152.3,-262.11"/>
<polygon fill="black" stroke="black" points="155.8,-262.1 152.3,-252.1 148.8,-262.1 155.8,-262.1"/>
</g>
<!-- i7 -->
<g id="node8" class="node">
<title>i7</title>
<ellipse fill="none" stroke="black" cx="262.3" cy="-234" rx="38.19" ry="18"/>
<text text-anchor="middle" x="262.3" y="-230.3" font-family="Times New Roman,serif" font-size="14.00">a = 100</text>
</g>
<!-- i0&#45;&gt;i7 -->
<g id="edge7" class="edge">
<title>i0&#45;&gt;i7</title>
<path fill="none" stroke="black" d="M169.48,-294.06C186.12,-283.48 211.69,-267.2 231.79,-254.42"/>
<polygon fill="black" stroke="black" points="233.74,-257.32 240.3,-249 229.98,-251.41 233.74,-257.32"/>
</g>
<!-- i3 -->
<g id="node4" class="node">
<title>i3</title>
<ellipse fill="none" stroke="black" cx="104.3" cy="-162" rx="27" ry="18"/>
<text text-anchor="middle" x="104.3" y="-158.3" font-family="Times New Roman,serif" font-size="14.00">a++</text>
</g>
<!-- i2&#45;&gt;i3 -->
<g id="edge3" class="edge">
<title>i2&#45;&gt;i3</title>
<path fill="none" stroke="black" d="M140.68,-216.05C134.73,-207.38 127.38,-196.67 120.85,-187.15"/>
<polygon fill="black" stroke="black" points="123.69,-185.1 115.15,-178.83 117.92,-189.06 123.69,-185.1"/>
</g>
<!-- i4 -->
<g id="node5" class="node">
<title>i4</title>
<ellipse fill="none" stroke="red" cx="201.3" cy="-162" rx="51.99" ry="18"/>
<text text-anchor="middle" x="201.3" y="-158.3" font-family="Times New Roman,serif" font-size="14.00">if (a == 50)</text>
</g>
<!-- i2&#45;&gt;i4 -->
<g id="edge4" class="edge">
<title>i2&#45;&gt;i4</title>
<path fill="none" stroke="black" d="M163.91,-216.41C169.8,-207.99 177.09,-197.58 183.66,-188.2"/>
<polygon fill="black" stroke="black" points="186.56,-190.16 189.43,-179.96 180.83,-186.14 186.56,-190.16"/>
</g>
<!-- i5 -->
<g id="node6" class="node">
<title>i5</title>
<ellipse fill="none" stroke="red" cx="201.3" cy="-90" rx="27" ry="18"/>
<text text-anchor="middle" x="201.3" y="-86.3" font-family="Times New Roman,serif" font-size="14.00">then</text>
</g>
<!-- i4&#45;&gt;i5 -->
<g id="edge1" class="edge">
<title>i4&#45;&gt;i5</title>
<path fill="none" stroke="black" d="M201.3,-143.7C201.3,-135.98 201.3,-126.71 201.3,-118.11"/>
<polygon fill="black" stroke="black" points="204.8,-118.1 201.3,-108.1 197.8,-118.1 204.8,-118.1"/>
</g>
<!-- i6 -->
<g id="node7" class="node">
<title>i6</title>
<ellipse fill="none" stroke="black" cx="201.3" cy="-18" rx="38.99" ry="18"/>
<text text-anchor="middle" x="201.3" y="-14.3" font-family="Times New Roman,serif" font-size="14.00">a += 10</text>
</g>
<!-- i5&#45;&gt;i6 -->
<g id="edge2" class="edge">
<title>i5&#45;&gt;i6</title>
<path fill="none" stroke="black" d="M201.3,-71.7C201.3,-63.98 201.3,-54.71 201.3,-46.11"/>
<polygon fill="black" stroke="black" points="204.8,-46.1 201.3,-36.1 197.8,-46.1 204.8,-46.1"/>
</g>
</g>
</svg>
