<?xml version="1.0" encoding="UTF-8" standalone="no"?>
<!DOCTYPE svg PUBLIC "-//W3C//DTD SVG 1.1//EN"
 "http://www.w3.org/Graphics/SVG/1.1/DTD/svg11.dtd">
<!-- Generated by graphviz version 2.50.0 (20211204.2007)
 -->
<!-- Pages: 1 -->
<svg width="492pt" height="476pt"
 viewBox="0.00 0.00 492.30 476.00" xmlns="http://www.w3.org/2000/svg" xmlns:xlink="http://www.w3.org/1999/xlink">
<g id="graph0" class="graph" transform="scale(1 1) rotate(0) translate(4 472)">
<polygon fill="white" stroke="transparent" points="-4,4 -4,-472 488.3,-472 488.3,4 -4,4"/>
<!-- i0 -->
<g id="node1" class="node">
<title>i0</title>
<polygon fill="none" stroke="green" points="222.42,-444.44 255.3,-432 288.17,-444.44 288.14,-464.56 222.45,-464.56 222.42,-444.44"/>
<text text-anchor="middle" x="255.3" y="-446.3" font-family="Times New Roman,serif" font-size="14.00">start</text>
</g>
<!-- i1 -->
<g id="node2" class="node">
<title>i1</title>
<ellipse fill="none" stroke="black" cx="40.3" cy="-378" rx="40.09" ry="18"/>
<text text-anchor="middle" x="40.3" y="-374.3" font-family="Times New Roman,serif" font-size="14.00">int a = 1</text>
</g>
<!-- i0&#45;&gt;i1 -->
<g id="edge12" class="edge">
<title>i0&#45;&gt;i1</title>
<path fill="none" stroke="blue" d="M230.48,-441.29C197.98,-431.14 139.24,-412.63 89.3,-396 86.53,-395.08 83.69,-394.12 80.82,-393.15"/>
<polygon fill="blue" stroke="blue" points="81.69,-389.75 71.1,-389.82 79.43,-396.37 81.69,-389.75"/>
</g>
<!-- i2 -->
<g id="node3" class="node">
<title>i2</title>
<ellipse fill="none" stroke="black" cx="140.3" cy="-378" rx="41.69" ry="18"/>
<text text-anchor="middle" x="140.3" y="-374.3" font-family="Times New Roman,serif" font-size="14.00">int b = 2</text>
</g>
<!-- i0&#45;&gt;i2 -->
<g id="edge13" class="edge">
<title>i0&#45;&gt;i2</title>
<path fill="none" stroke="blue" d="M237.83,-438.37C220.46,-427.79 193.4,-411.33 172.19,-398.41"/>
<polygon fill="blue" stroke="blue" points="173.87,-395.34 163.5,-393.13 170.23,-401.32 173.87,-395.34"/>
</g>
<!-- i3 -->
<g id="node4" class="node">
<title>i3</title>
<ellipse fill="none" stroke="black" cx="255.3" cy="-378" rx="55.79" ry="18"/>
<text text-anchor="middle" x="255.3" y="-374.3" font-family="Times New Roman,serif" font-size="14.00">int c = a + b</text>
</g>
<!-- i0&#45;&gt;i3 -->
<g id="edge14" class="edge">
<title>i0&#45;&gt;i3</title>
<path fill="none" stroke="blue" d="M255.3,-431.7C255.3,-423.98 255.3,-414.71 255.3,-406.11"/>
<polygon fill="blue" stroke="blue" points="258.8,-406.1 255.3,-396.1 251.8,-406.1 258.8,-406.1"/>
</g>
<!-- i4 -->
<g id="node5" class="node">
<title>i4</title>
<ellipse fill="none" stroke="red" cx="370.3" cy="-378" rx="40.89" ry="18"/>
<text text-anchor="middle" x="370.3" y="-374.3" font-family="Times New Roman,serif" font-size="14.00">if (True)</text>
</g>
<!-- i0&#45;&gt;i4 -->
<g id="edge15" class="edge">
<title>i0&#45;&gt;i4</title>
<path fill="none" stroke="blue" d="M272.76,-438.37C290.14,-427.79 317.19,-411.33 338.4,-398.41"/>
<polygon fill="blue" stroke="blue" points="340.37,-401.32 347.09,-393.13 336.73,-395.34 340.37,-401.32"/>
</g>
<!-- i16 -->
<g id="node17" class="node">
<title>i16</title>
<ellipse fill="none" stroke="black" cx="456.3" cy="-378" rx="27" ry="18"/>
<text text-anchor="middle" x="456.3" y="-374.3" font-family="Times New Roman,serif" font-size="14.00">a++</text>
</g>
<!-- i0&#45;&gt;i16 -->
<g id="edge16" class="edge">
<title>i0&#45;&gt;i16</title>
<path fill="none" stroke="blue" d="M281.39,-441.76C314.22,-432.4 372.16,-415 420.3,-396 422.13,-395.28 424,-394.5 425.88,-393.7"/>
<polygon fill="blue" stroke="blue" points="427.48,-396.82 435.18,-389.53 424.62,-390.43 427.48,-396.82"/>
</g>
<!-- i5 -->
<g id="node6" class="node">
<title>i5</title>
<ellipse fill="none" stroke="red" cx="319.3" cy="-306" rx="27" ry="18"/>
<text text-anchor="middle" x="319.3" y="-302.3" font-family="Times New Roman,serif" font-size="14.00">then</text>
</g>
<!-- i4&#45;&gt;i5 -->
<g id="edge1" class="edge">
<title>i4&#45;&gt;i5</title>
<path fill="none" stroke="blue" d="M358.47,-360.76C352,-351.89 343.88,-340.74 336.7,-330.89"/>
<polygon fill="blue" stroke="blue" points="339.43,-328.69 330.71,-322.67 333.77,-332.81 339.43,-328.69"/>
</g>
<!-- i6 -->
<g id="node7" class="node">
<title>i6</title>
<ellipse fill="none" stroke="red" cx="421.3" cy="-306" rx="57.39" ry="18"/>
<text text-anchor="middle" x="421.3" y="-302.3" font-family="Times New Roman,serif" font-size="14.00">else if (True)</text>
</g>
<!-- i4&#45;&gt;i6 -->
<g id="edge2" class="edge">
<title>i4&#45;&gt;i6</title>
<path fill="none" stroke="blue" d="M382.13,-360.76C388.41,-352.14 396.26,-341.36 403.28,-331.73"/>
<polygon fill="blue" stroke="blue" points="406.12,-333.78 409.18,-323.63 400.46,-329.65 406.12,-333.78"/>
</g>
<!-- i7 -->
<g id="node8" class="node">
<title>i7</title>
<ellipse fill="none" stroke="red" cx="385.3" cy="-234" rx="27" ry="18"/>
<text text-anchor="middle" x="385.3" y="-230.3" font-family="Times New Roman,serif" font-size="14.00">then</text>
</g>
<!-- i6&#45;&gt;i7 -->
<g id="edge3" class="edge">
<title>i6&#45;&gt;i7</title>
<path fill="none" stroke="blue" d="M412.58,-288.05C408.32,-279.77 403.1,-269.62 398.37,-260.42"/>
<polygon fill="blue" stroke="blue" points="401.37,-258.6 393.68,-251.31 395.14,-261.8 401.37,-258.6"/>
</g>
<!-- i15 -->
<g id="node16" class="node">
<title>i15</title>
<ellipse fill="none" stroke="red" cx="457.3" cy="-234" rx="27" ry="18"/>
<text text-anchor="middle" x="457.3" y="-230.3" font-family="Times New Roman,serif" font-size="14.00">else</text>
</g>
<!-- i6&#45;&gt;i15 -->
<g id="edge11" class="edge">
<title>i6&#45;&gt;i15</title>
<path fill="none" stroke="blue" d="M430.01,-288.05C434.27,-279.77 439.49,-269.62 444.22,-260.42"/>
<polygon fill="blue" stroke="blue" points="447.45,-261.8 448.91,-251.31 441.22,-258.6 447.45,-261.8"/>
</g>
<!-- i8 -->
<g id="node9" class="node">
<title>i8</title>
<ellipse fill="none" stroke="red" cx="341.3" cy="-162" rx="42.79" ry="18"/>
<text text-anchor="middle" x="341.3" y="-158.3" font-family="Times New Roman,serif" font-size="14.00">if (False)</text>
</g>
<!-- i7&#45;&gt;i8 -->
<g id="edge9" class="edge">
<title>i7&#45;&gt;i8</title>
<path fill="none" stroke="blue" d="M375.31,-217.12C370.01,-208.68 363.36,-198.1 357.35,-188.55"/>
<polygon fill="blue" stroke="blue" points="360.14,-186.4 351.85,-179.8 354.21,-190.13 360.14,-186.4"/>
</g>
<!-- i14 -->
<g id="node15" class="node">
<title>i14</title>
<ellipse fill="none" stroke="black" cx="429.3" cy="-162" rx="27" ry="18"/>
<text text-anchor="middle" x="429.3" y="-158.3" font-family="Times New Roman,serif" font-size="14.00">b++</text>
</g>
<!-- i7&#45;&gt;i14 -->
<g id="edge10" class="edge">
<title>i7&#45;&gt;i14</title>
<path fill="none" stroke="blue" d="M395.28,-217.12C400.79,-208.34 407.76,-197.26 413.95,-187.42"/>
<polygon fill="blue" stroke="blue" points="416.99,-189.15 419.35,-178.82 411.07,-185.42 416.99,-189.15"/>
</g>
<!-- i9 -->
<g id="node10" class="node">
<title>i9</title>
<ellipse fill="none" stroke="red" cx="305.3" cy="-90" rx="27" ry="18"/>
<text text-anchor="middle" x="305.3" y="-86.3" font-family="Times New Roman,serif" font-size="14.00">then</text>
</g>
<!-- i8&#45;&gt;i9 -->
<g id="edge4" class="edge">
<title>i8&#45;&gt;i9</title>
<path fill="none" stroke="blue" d="M332.58,-144.05C328.32,-135.77 323.1,-125.62 318.37,-116.42"/>
<polygon fill="blue" stroke="blue" points="321.37,-114.6 313.68,-107.31 315.14,-117.8 321.37,-114.6"/>
</g>
<!-- i11 -->
<g id="node12" class="node">
<title>i11</title>
<ellipse fill="none" stroke="red" cx="377.3" cy="-90" rx="27" ry="18"/>
<text text-anchor="middle" x="377.3" y="-86.3" font-family="Times New Roman,serif" font-size="14.00">else</text>
</g>
<!-- i8&#45;&gt;i11 -->
<g id="edge6" class="edge">
<title>i8&#45;&gt;i11</title>
<path fill="none" stroke="blue" d="M350.01,-144.05C354.27,-135.77 359.49,-125.62 364.22,-116.42"/>
<polygon fill="blue" stroke="blue" points="367.45,-117.8 368.91,-107.31 361.22,-114.6 367.45,-117.8"/>
</g>
<!-- i10 -->
<g id="node11" class="node">
<title>i10</title>
<ellipse fill="none" stroke="black" cx="305.3" cy="-18" rx="27" ry="18"/>
<text text-anchor="middle" x="305.3" y="-14.3" font-family="Times New Roman,serif" font-size="14.00">a++</text>
</g>
<!-- i9&#45;&gt;i10 -->
<g id="edge5" class="edge">
<title>i9&#45;&gt;i10</title>
<path fill="none" stroke="blue" d="M305.3,-71.7C305.3,-63.98 305.3,-54.71 305.3,-46.11"/>
<polygon fill="blue" stroke="blue" points="308.8,-46.1 305.3,-36.1 301.8,-46.1 308.8,-46.1"/>
</g>
<!-- i12 -->
<g id="node13" class="node">
<title>i12</title>
<ellipse fill="none" stroke="black" cx="377.3" cy="-18" rx="27" ry="18"/>
<text text-anchor="middle" x="377.3" y="-14.3" font-family="Times New Roman,serif" font-size="14.00">b++</text>
</g>
<!-- i11&#45;&gt;i12 -->
<g id="edge7" class="edge">
<title>i11&#45;&gt;i12</title>
<path fill="none" stroke="blue" d="M377.3,-71.7C377.3,-63.98 377.3,-54.71 377.3,-46.11"/>
<polygon fill="blue" stroke="blue" points="380.8,-46.1 377.3,-36.1 373.8,-46.1 380.8,-46.1"/>
</g>
<!-- i13 -->
<g id="node14" class="node">
<title>i13</title>
<ellipse fill="none" stroke="black" cx="449.3" cy="-18" rx="27" ry="18"/>
<text text-anchor="middle" x="449.3" y="-14.3" font-family="Times New Roman,serif" font-size="14.00">a&#45;&#45;</text>
</g>
<!-- i11&#45;&gt;i13 -->
<g id="edge8" class="edge">
<title>i11&#45;&gt;i13</title>
<path fill="none" stroke="blue" d="M391.87,-74.83C402.05,-64.94 415.82,-51.55 427.33,-40.36"/>
<polygon fill="blue" stroke="blue" points="429.77,-42.87 434.5,-33.38 424.89,-37.85 429.77,-42.87"/>
</g>
</g>
</svg>
