<?xml version="1.0" encoding="UTF-8" standalone="no"?>
<!DOCTYPE svg PUBLIC "-//W3C//DTD SVG 1.1//EN"
 "http://www.w3.org/Graphics/SVG/1.1/DTD/svg11.dtd">
<!-- Generated by graphviz version 2.50.0 (20211204.2007)
 -->
<!-- Pages: 1 -->
<svg width="331pt" height="332pt"
 viewBox="0.00 0.00 330.64 332.00" xmlns="http://www.w3.org/2000/svg" xmlns:xlink="http://www.w3.org/1999/xlink">
<g id="graph0" class="graph" transform="scale(1 1) rotate(0) translate(4 328)">
<polygon fill="white" stroke="transparent" points="-4,4 -4,-328 326.64,-328 326.64,4 -4,4"/>
<!-- i0 -->
<g id="node1" class="node">
<title>i0</title>
<polygon fill="none" stroke="green" points="130.42,-300.44 163.3,-288 196.17,-300.44 196.14,-320.56 130.45,-320.56 130.42,-300.44"/>
<text text-anchor="middle" x="163.3" y="-302.3" font-family="Times New Roman,serif" font-size="14.00">start</text>
</g>
<!-- i1 -->
<g id="node2" class="node">
<title>i1</title>
<ellipse fill="none" stroke="black" cx="40.3" cy="-234" rx="40.09" ry="18"/>
<text text-anchor="middle" x="40.3" y="-230.3" font-family="Times New Roman,serif" font-size="14.00">int a = 0</text>
</g>
<!-- i0&#45;&gt;i1 -->
<g id="edge5" class="edge">
<title>i0&#45;&gt;i1</title>
<path fill="none" stroke="blue" d="M145.15,-294.67C126.27,-283.93 96.3,-266.87 73.23,-253.74"/>
<polygon fill="blue" stroke="blue" points="74.87,-250.65 64.45,-248.75 71.41,-256.73 74.87,-250.65"/>
</g>
<!-- i2 -->
<g id="node3" class="node">
<title>i2</title>
<ellipse fill="none" stroke="orange" cx="163.3" cy="-234" rx="64.99" ry="18"/>
<text text-anchor="middle" x="163.3" y="-230.3" font-family="Times New Roman,serif" font-size="14.00">while (a &lt; 100)</text>
</g>
<!-- i0&#45;&gt;i2 -->
<g id="edge6" class="edge">
<title>i0&#45;&gt;i2</title>
<path fill="none" stroke="blue" d="M163.3,-287.7C163.3,-279.98 163.3,-270.71 163.3,-262.11"/>
<polygon fill="blue" stroke="blue" points="166.8,-262.1 163.3,-252.1 159.8,-262.1 166.8,-262.1"/>
</g>
<!-- i7 -->
<g id="node8" class="node">
<title>i7</title>
<ellipse fill="none" stroke="black" cx="284.3" cy="-234" rx="38.19" ry="18"/>
<text text-anchor="middle" x="284.3" y="-230.3" font-family="Times New Roman,serif" font-size="14.00">a = 100</text>
</g>
<!-- i0&#45;&gt;i7 -->
<g id="edge7" class="edge">
<title>i0&#45;&gt;i7</title>
<path fill="none" stroke="blue" d="M181.15,-294.67C199.75,-283.91 229.31,-266.81 252.02,-253.67"/>
<polygon fill="blue" stroke="blue" points="254.07,-256.53 260.97,-248.49 250.56,-250.47 254.07,-256.53"/>
</g>
<!-- i3 -->
<g id="node4" class="node">
<title>i3</title>
<ellipse fill="none" stroke="black" cx="115.3" cy="-162" rx="27" ry="18"/>
<text text-anchor="middle" x="115.3" y="-158.3" font-family="Times New Roman,serif" font-size="14.00">a++</text>
</g>
<!-- i2&#45;&gt;i3 -->
<g id="edge3" class="edge">
<title>i2&#45;&gt;i3</title>
<path fill="none" stroke="blue" d="M151.68,-216.05C145.73,-207.38 138.38,-196.67 131.85,-187.15"/>
<polygon fill="blue" stroke="blue" points="134.69,-185.1 126.15,-178.83 128.92,-189.06 134.69,-185.1"/>
</g>
<!-- i4 -->
<g id="node5" class="node">
<title>i4</title>
<ellipse fill="none" stroke="red" cx="212.3" cy="-162" rx="51.99" ry="18"/>
<text text-anchor="middle" x="212.3" y="-158.3" font-family="Times New Roman,serif" font-size="14.00">if (a == 50)</text>
</g>
<!-- i2&#45;&gt;i4 -->
<g id="edge4" class="edge">
<title>i2&#45;&gt;i4</title>
<path fill="none" stroke="blue" d="M175.16,-216.05C181,-207.71 188.15,-197.49 194.62,-188.25"/>
<polygon fill="blue" stroke="blue" points="197.68,-189.99 200.54,-179.79 191.94,-185.97 197.68,-189.99"/>
</g>
<!-- i5 -->
<g id="node6" class="node">
<title>i5</title>
<ellipse fill="none" stroke="red" cx="212.3" cy="-90" rx="27" ry="18"/>
<text text-anchor="middle" x="212.3" y="-86.3" font-family="Times New Roman,serif" font-size="14.00">then</text>
</g>
<!-- i4&#45;&gt;i5 -->
<g id="edge1" class="edge">
<title>i4&#45;&gt;i5</title>
<path fill="none" stroke="blue" d="M212.3,-143.7C212.3,-135.98 212.3,-126.71 212.3,-118.11"/>
<polygon fill="blue" stroke="blue" points="215.8,-118.1 212.3,-108.1 208.8,-118.1 215.8,-118.1"/>
</g>
<!-- i6 -->
<g id="node7" class="node">
<title>i6</title>
<ellipse fill="none" stroke="black" cx="212.3" cy="-18" rx="38.99" ry="18"/>
<text text-anchor="middle" x="212.3" y="-14.3" font-family="Times New Roman,serif" font-size="14.00">a += 10</text>
</g>
<!-- i5&#45;&gt;i6 -->
<g id="edge2" class="edge">
<title>i5&#45;&gt;i6</title>
<path fill="none" stroke="blue" d="M212.3,-71.7C212.3,-63.98 212.3,-54.71 212.3,-46.11"/>
<polygon fill="blue" stroke="blue" points="215.8,-46.1 212.3,-36.1 208.8,-46.1 215.8,-46.1"/>
</g>
</g>
</svg>
