<?xml version="1.0" encoding="UTF-8" standalone="no"?>
<!DOCTYPE svg PUBLIC "-//W3C//DTD SVG 1.1//EN"
 "http://www.w3.org/Graphics/SVG/1.1/DTD/svg11.dtd">
<!-- Generated by graphviz version 2.50.0 (20211204.2007)
 -->
<!-- Pages: 1 -->
<svg width="520pt" height="332pt"
 viewBox="0.00 0.00 519.64 332.00" xmlns="http://www.w3.org/2000/svg" xmlns:xlink="http://www.w3.org/1999/xlink">
<g id="graph0" class="graph" transform="scale(1 1) rotate(0) translate(4 328)">
<polygon fill="white" stroke="transparent" points="-4,4 -4,-328 515.64,-328 515.64,4 -4,4"/>
<!-- i0 -->
<g id="node1" class="node">
<title>i0</title>
<polygon fill="none" stroke="green" points="191.42,-300.44 224.3,-288 257.17,-300.44 257.14,-320.56 191.45,-320.56 191.42,-300.44"/>
<text text-anchor="middle" x="224.3" y="-302.3" font-family="Times New Roman,serif" font-size="14.00">start</text>
</g>
<!-- i1 -->
<g id="node2" class="node">
<title>i1</title>
<ellipse fill="none" stroke="black" cx="40.3" cy="-234" rx="40.09" ry="18"/>
<text text-anchor="middle" x="40.3" y="-230.3" font-family="Times New Roman,serif" font-size="14.00">int a = 1</text>
</g>
<!-- i0&#45;&gt;i1 -->
<g id="edge7" class="edge">
<title>i0&#45;&gt;i1</title>
<path fill="none" stroke="blue" d="M201.73,-296.42C171.34,-284.85 116.78,-264.1 79.58,-249.94"/>
<polygon fill="blue" stroke="blue" points="80.64,-246.6 70.05,-246.32 78.15,-253.15 80.64,-246.6"/>
</g>
<!-- i2 -->
<g id="node3" class="node">
<title>i2</title>
<ellipse fill="none" stroke="black" cx="140.3" cy="-234" rx="41.69" ry="18"/>
<text text-anchor="middle" x="140.3" y="-230.3" font-family="Times New Roman,serif" font-size="14.00">int b = 0</text>
</g>
<!-- i0&#45;&gt;i2 -->
<g id="edge8" class="edge">
<title>i0&#45;&gt;i2</title>
<path fill="none" stroke="blue" d="M210.05,-293.13C198.23,-283.28 181.11,-269.01 166.79,-257.08"/>
<polygon fill="blue" stroke="blue" points="168.66,-254.08 158.74,-250.37 164.18,-259.46 168.66,-254.08"/>
</g>
<!-- i3 -->
<g id="node4" class="node">
<title>i3</title>
<ellipse fill="none" stroke="orange" cx="308.3" cy="-234" rx="108.58" ry="18"/>
<text text-anchor="middle" x="308.3" y="-230.3" font-family="Times New Roman,serif" font-size="14.00">foreach (int i in [1,2,3,4,5])</text>
</g>
<!-- i0&#45;&gt;i3 -->
<g id="edge9" class="edge">
<title>i0&#45;&gt;i3</title>
<path fill="none" stroke="blue" d="M238.55,-293.13C249.89,-283.67 266.13,-270.14 280.09,-258.51"/>
<polygon fill="blue" stroke="blue" points="282.54,-261.02 287.98,-251.93 278.06,-255.64 282.54,-261.02"/>
</g>
<!-- i10 -->
<g id="node11" class="node">
<title>i10</title>
<ellipse fill="none" stroke="black" cx="473.3" cy="-234" rx="38.19" ry="18"/>
<text text-anchor="middle" x="473.3" y="-230.3" font-family="Times New Roman,serif" font-size="14.00">a = 100</text>
</g>
<!-- i0&#45;&gt;i10 -->
<g id="edge10" class="edge">
<title>i0&#45;&gt;i10</title>
<path fill="none" stroke="blue" d="M252.3,-298.5C291.5,-289.21 364.85,-271.13 426.3,-252 429.05,-251.14 431.89,-250.22 434.73,-249.26"/>
<polygon fill="blue" stroke="blue" points="436.05,-252.51 444.35,-245.93 433.76,-245.9 436.05,-252.51"/>
</g>
<!-- i4 -->
<g id="node5" class="node">
<title>i4</title>
<ellipse fill="none" stroke="black" cx="251.3" cy="-162" rx="31.4" ry="18"/>
<text text-anchor="middle" x="251.3" y="-158.3" font-family="Times New Roman,serif" font-size="14.00">a *= i</text>
</g>
<!-- i3&#45;&gt;i4 -->
<g id="edge5" class="edge">
<title>i3&#45;&gt;i4</title>
<path fill="none" stroke="blue" d="M294.5,-216.05C287.36,-207.29 278.53,-196.45 270.72,-186.86"/>
<polygon fill="blue" stroke="blue" points="273.21,-184.37 264.19,-178.83 267.79,-188.79 273.21,-184.37"/>
</g>
<!-- i5 -->
<g id="node6" class="node">
<title>i5</title>
<ellipse fill="none" stroke="red" cx="365.3" cy="-162" rx="64.99" ry="18"/>
<text text-anchor="middle" x="365.3" y="-158.3" font-family="Times New Roman,serif" font-size="14.00">if (a % 2 == 0)</text>
</g>
<!-- i3&#45;&gt;i5 -->
<g id="edge6" class="edge">
<title>i3&#45;&gt;i5</title>
<path fill="none" stroke="blue" d="M322.09,-216.05C329.03,-207.54 337.56,-197.07 345.2,-187.68"/>
<polygon fill="blue" stroke="blue" points="348.03,-189.75 351.63,-179.79 342.6,-185.33 348.03,-189.75"/>
</g>
<!-- i6 -->
<g id="node7" class="node">
<title>i6</title>
<ellipse fill="none" stroke="red" cx="329.3" cy="-90" rx="27" ry="18"/>
<text text-anchor="middle" x="329.3" y="-86.3" font-family="Times New Roman,serif" font-size="14.00">then</text>
</g>
<!-- i5&#45;&gt;i6 -->
<g id="edge1" class="edge">
<title>i5&#45;&gt;i6</title>
<path fill="none" stroke="blue" d="M356.58,-144.05C352.32,-135.77 347.1,-125.62 342.37,-116.42"/>
<polygon fill="blue" stroke="blue" points="345.37,-114.6 337.68,-107.31 339.14,-117.8 345.37,-114.6"/>
</g>
<!-- i8 -->
<g id="node9" class="node">
<title>i8</title>
<ellipse fill="none" stroke="red" cx="401.3" cy="-90" rx="27" ry="18"/>
<text text-anchor="middle" x="401.3" y="-86.3" font-family="Times New Roman,serif" font-size="14.00">else</text>
</g>
<!-- i5&#45;&gt;i8 -->
<g id="edge3" class="edge">
<title>i5&#45;&gt;i8</title>
<path fill="none" stroke="blue" d="M374.01,-144.05C378.27,-135.77 383.49,-125.62 388.22,-116.42"/>
<polygon fill="blue" stroke="blue" points="391.45,-117.8 392.91,-107.31 385.22,-114.6 391.45,-117.8"/>
</g>
<!-- i7 -->
<g id="node8" class="node">
<title>i7</title>
<ellipse fill="none" stroke="black" cx="329.3" cy="-18" rx="27" ry="18"/>
<text text-anchor="middle" x="329.3" y="-14.3" font-family="Times New Roman,serif" font-size="14.00">b++</text>
</g>
<!-- i6&#45;&gt;i7 -->
<g id="edge2" class="edge">
<title>i6&#45;&gt;i7</title>
<path fill="none" stroke="blue" d="M329.3,-71.7C329.3,-63.98 329.3,-54.71 329.3,-46.11"/>
<polygon fill="blue" stroke="blue" points="332.8,-46.1 329.3,-36.1 325.8,-46.1 332.8,-46.1"/>
</g>
<!-- i9 -->
<g id="node10" class="node">
<title>i9</title>
<ellipse fill="none" stroke="black" cx="401.3" cy="-18" rx="27" ry="18"/>
<text text-anchor="middle" x="401.3" y="-14.3" font-family="Times New Roman,serif" font-size="14.00">b&#45;&#45;</text>
</g>
<!-- i8&#45;&gt;i9 -->
<g id="edge4" class="edge">
<title>i8&#45;&gt;i9</title>
<path fill="none" stroke="blue" d="M401.3,-71.7C401.3,-63.98 401.3,-54.71 401.3,-46.11"/>
<polygon fill="blue" stroke="blue" points="404.8,-46.1 401.3,-36.1 397.8,-46.1 404.8,-46.1"/>
</g>
</g>
</svg>
