<?xml version="1.0" encoding="UTF-8" standalone="no"?>
<!DOCTYPE svg PUBLIC "-//W3C//DTD SVG 1.1//EN"
 "http://www.w3.org/Graphics/SVG/1.1/DTD/svg11.dtd">
<!-- Generated by graphviz version 2.50.0 (20211204.2007)
 -->
<!-- Pages: 1 -->
<svg width="504pt" height="332pt"
 viewBox="0.00 0.00 503.64 332.00" xmlns="http://www.w3.org/2000/svg" xmlns:xlink="http://www.w3.org/1999/xlink">
<g id="graph0" class="graph" transform="scale(1 1) rotate(0) translate(4 328)">
<polygon fill="white" stroke="transparent" points="-4,4 -4,-328 499.64,-328 499.64,4 -4,4"/>
<!-- i0 -->
<g id="node1" class="node">
<title>i0</title>
<polygon fill="none" stroke="green" points="187.42,-300.44 220.3,-288 253.17,-300.44 253.14,-320.56 187.45,-320.56 187.42,-300.44"/>
<text text-anchor="middle" x="220.3" y="-302.3" font-family="Times New Roman,serif" font-size="14.00">start</text>
</g>
<!-- i1 -->
<g id="node2" class="node">
<title>i1</title>
<ellipse fill="none" stroke="black" cx="40.3" cy="-234" rx="40.09" ry="18"/>
<text text-anchor="middle" x="40.3" y="-230.3" font-family="Times New Roman,serif" font-size="14.00">int a = 1</text>
</g>
<!-- i0&#45;&gt;i1 -->
<g id="edge7" class="edge">
<title>i0&#45;&gt;i1</title>
<path fill="none" stroke="black" d="M197.86,-296.28C168.23,-284.75 115.57,-264.27 79.34,-250.18"/>
<polygon fill="black" stroke="black" points="80.17,-246.75 69.59,-246.39 77.64,-253.28 80.17,-246.75"/>
</g>
<!-- i2 -->
<g id="node3" class="node">
<title>i2</title>
<ellipse fill="none" stroke="black" cx="140.3" cy="-234" rx="41.69" ry="18"/>
<text text-anchor="middle" x="140.3" y="-230.3" font-family="Times New Roman,serif" font-size="14.00">int b = 0</text>
</g>
<!-- i0&#45;&gt;i2 -->
<g id="edge8" class="edge">
<title>i0&#45;&gt;i2</title>
<path fill="none" stroke="black" d="M206.73,-293.13C195.47,-283.28 179.17,-269.01 165.53,-257.08"/>
<polygon fill="black" stroke="black" points="167.69,-254.32 157.86,-250.37 163.08,-259.59 167.69,-254.32"/>
</g>
<!-- i3 -->
<g id="node4" class="node">
<title>i3</title>
<ellipse fill="none" stroke="blue" cx="300.3" cy="-234" rx="100.98" ry="18"/>
<text text-anchor="middle" x="300.3" y="-230.3" font-family="Times New Roman,serif" font-size="14.00">for (int i = 0; i &lt; 10; i++)</text>
</g>
<!-- i0&#45;&gt;i3 -->
<g id="edge9" class="edge">
<title>i0&#45;&gt;i3</title>
<path fill="none" stroke="black" d="M233.87,-293.13C244.57,-283.76 259.85,-270.39 273.06,-258.84"/>
<polygon fill="black" stroke="black" points="275.73,-261.15 280.95,-251.93 271.12,-255.88 275.73,-261.15"/>
</g>
<!-- i10 -->
<g id="node11" class="node">
<title>i10</title>
<ellipse fill="none" stroke="black" cx="457.3" cy="-234" rx="38.19" ry="18"/>
<text text-anchor="middle" x="457.3" y="-230.3" font-family="Times New Roman,serif" font-size="14.00">a = 100</text>
</g>
<!-- i0&#45;&gt;i10 -->
<g id="edge10" class="edge">
<title>i0&#45;&gt;i10</title>
<path fill="none" stroke="black" d="M247.23,-298.17C284.22,-288.63 352.73,-270.41 410.3,-252 413.05,-251.12 415.88,-250.18 418.72,-249.22"/>
<polygon fill="black" stroke="black" points="420.04,-252.46 428.33,-245.86 417.74,-245.85 420.04,-252.46"/>
</g>
<!-- i4 -->
<g id="node5" class="node">
<title>i4</title>
<ellipse fill="none" stroke="black" cx="243.3" cy="-162" rx="31.4" ry="18"/>
<text text-anchor="middle" x="243.3" y="-158.3" font-family="Times New Roman,serif" font-size="14.00">a *= i</text>
</g>
<!-- i3&#45;&gt;i4 -->
<g id="edge5" class="edge">
<title>i3&#45;&gt;i4</title>
<path fill="none" stroke="black" d="M286.5,-216.05C279.36,-207.29 270.53,-196.45 262.72,-186.86"/>
<polygon fill="black" stroke="black" points="265.21,-184.37 256.19,-178.83 259.79,-188.79 265.21,-184.37"/>
</g>
<!-- i5 -->
<g id="node6" class="node">
<title>i5</title>
<ellipse fill="none" stroke="red" cx="357.3" cy="-162" rx="64.99" ry="18"/>
<text text-anchor="middle" x="357.3" y="-158.3" font-family="Times New Roman,serif" font-size="14.00">if (a % 2 == 0)</text>
</g>
<!-- i3&#45;&gt;i5 -->
<g id="edge6" class="edge">
<title>i3&#45;&gt;i5</title>
<path fill="none" stroke="black" d="M314.09,-216.05C321.03,-207.54 329.56,-197.07 337.2,-187.68"/>
<polygon fill="black" stroke="black" points="340.03,-189.75 343.63,-179.79 334.6,-185.33 340.03,-189.75"/>
</g>
<!-- i6 -->
<g id="node7" class="node">
<title>i6</title>
<ellipse fill="none" stroke="red" cx="321.3" cy="-90" rx="27" ry="18"/>
<text text-anchor="middle" x="321.3" y="-86.3" font-family="Times New Roman,serif" font-size="14.00">then</text>
</g>
<!-- i5&#45;&gt;i6 -->
<g id="edge1" class="edge">
<title>i5&#45;&gt;i6</title>
<path fill="none" stroke="black" d="M348.58,-144.05C344.32,-135.77 339.1,-125.62 334.37,-116.42"/>
<polygon fill="black" stroke="black" points="337.37,-114.6 329.68,-107.31 331.14,-117.8 337.37,-114.6"/>
</g>
<!-- i8 -->
<g id="node9" class="node">
<title>i8</title>
<ellipse fill="none" stroke="red" cx="393.3" cy="-90" rx="27" ry="18"/>
<text text-anchor="middle" x="393.3" y="-86.3" font-family="Times New Roman,serif" font-size="14.00">else</text>
</g>
<!-- i5&#45;&gt;i8 -->
<g id="edge3" class="edge">
<title>i5&#45;&gt;i8</title>
<path fill="none" stroke="black" d="M366.01,-144.05C370.27,-135.77 375.49,-125.62 380.22,-116.42"/>
<polygon fill="black" stroke="black" points="383.45,-117.8 384.91,-107.31 377.22,-114.6 383.45,-117.8"/>
</g>
<!-- i7 -->
<g id="node8" class="node">
<title>i7</title>
<ellipse fill="none" stroke="black" cx="321.3" cy="-18" rx="27" ry="18"/>
<text text-anchor="middle" x="321.3" y="-14.3" font-family="Times New Roman,serif" font-size="14.00">b++</text>
</g>
<!-- i6&#45;&gt;i7 -->
<g id="edge2" class="edge">
<title>i6&#45;&gt;i7</title>
<path fill="none" stroke="black" d="M321.3,-71.7C321.3,-63.98 321.3,-54.71 321.3,-46.11"/>
<polygon fill="black" stroke="black" points="324.8,-46.1 321.3,-36.1 317.8,-46.1 324.8,-46.1"/>
</g>
<!-- i9 -->
<g id="node10" class="node">
<title>i9</title>
<ellipse fill="none" stroke="black" cx="393.3" cy="-18" rx="27" ry="18"/>
<text text-anchor="middle" x="393.3" y="-14.3" font-family="Times New Roman,serif" font-size="14.00">b&#45;&#45;</text>
</g>
<!-- i8&#45;&gt;i9 -->
<g id="edge4" class="edge">
<title>i8&#45;&gt;i9</title>
<path fill="none" stroke="black" d="M393.3,-71.7C393.3,-63.98 393.3,-54.71 393.3,-46.11"/>
<polygon fill="black" stroke="black" points="396.8,-46.1 393.3,-36.1 389.8,-46.1 396.8,-46.1"/>
</g>
</g>
</svg>
