<?xml version="1.0" encoding="UTF-8" standalone="no"?>
<!DOCTYPE svg PUBLIC "-//W3C//DTD SVG 1.1//EN"
 "http://www.w3.org/Graphics/SVG/1.1/DTD/svg11.dtd">
<!-- Generated by graphviz version 2.50.0 (20211204.2007)
 -->
<!-- Pages: 1 -->
<svg width="641pt" height="367pt"
 viewBox="0.00 0.00 641.27 367.48" xmlns="http://www.w3.org/2000/svg" xmlns:xlink="http://www.w3.org/1999/xlink">
<g id="graph0" class="graph" transform="scale(1 1) rotate(0) translate(4 363.48)">
<polygon fill="white" stroke="transparent" points="-4,4 -4,-363.48 637.27,-363.48 637.27,4 -4,4"/>
<!-- i0 -->
<g id="node1" class="node">
<title>i0</title>
<polygon fill="none" stroke="green" points="129.22,-327.05 162.1,-314.61 194.97,-327.05 194.94,-347.17 129.25,-347.17 129.22,-327.05"/>
<text text-anchor="middle" x="162.1" y="-328.91" font-family="Times New Roman,serif" font-size="14.00">start</text>
</g>
<!-- i5 -->
<g id="node6" class="node">
<title>i5</title>
<ellipse fill="none" stroke="black" cx="212.1" cy="-242.87" rx="40.89" ry="18"/>
<text text-anchor="middle" x="212.1" y="-239.17" font-family="Times New Roman,serif" font-size="14.00">int x = 0</text>
</g>
<!-- i0&#45;&gt;i5 -->
<g id="edge15" class="edge">
<title>i0&#45;&gt;i5</title>
<path fill="none" stroke="blue" d="M170.13,-317.51C177.51,-304.56 188.64,-285.04 197.58,-269.35"/>
<polygon fill="blue" stroke="blue" points="200.63,-271.05 202.55,-260.63 194.55,-267.59 200.63,-271.05"/>
</g>
<!-- i6 -->
<g id="node7" class="node">
<title>i6</title>
<ellipse fill="none" stroke="black" cx="112.1" cy="-242.87" rx="40.89" ry="18"/>
<text text-anchor="middle" x="112.1" y="-239.17" font-family="Times New Roman,serif" font-size="14.00">int y = 0</text>
</g>
<!-- i0&#45;&gt;i6 -->
<g id="edge16" class="edge">
<title>i0&#45;&gt;i6</title>
<path fill="none" stroke="blue" d="M154.06,-317.51C146.68,-304.56 135.56,-285.04 126.62,-269.35"/>
<polygon fill="blue" stroke="blue" points="129.64,-267.59 121.65,-260.63 123.56,-271.05 129.64,-267.59"/>
</g>
<!-- i7 -->
<g id="node8" class="node">
<title>i7</title>
<ellipse fill="none" stroke="black" cx="35.1" cy="-162" rx="35.19" ry="18"/>
<text text-anchor="middle" x="35.1" y="-158.3" font-family="Times New Roman,serif" font-size="14.00">x += y</text>
</g>
<!-- i0&#45;&gt;i7 -->
<g id="edge17" class="edge">
<title>i0&#45;&gt;i7</title>
<path fill="none" stroke="blue" d="M139.03,-323.33C116.07,-313.89 81.52,-296.26 62.1,-269.74 45.03,-246.44 38.7,-213.47 36.39,-190.35"/>
<polygon fill="blue" stroke="blue" points="39.86,-189.87 35.56,-180.19 32.88,-190.44 39.86,-189.87"/>
</g>
<!-- i8 -->
<g id="node9" class="node">
<title>i8</title>
<ellipse fill="none" stroke="red" cx="384.1" cy="-162" rx="143.77" ry="18"/>
<text text-anchor="middle" x="384.1" y="-158.3" font-family="Times New Roman,serif" font-size="14.00">if (x || y * foo(x) + arg0 &amp;&amp; glob_b)</text>
</g>
<!-- i0&#45;&gt;i8 -->
<g id="edge18" class="edge">
<title>i0&#45;&gt;i8</title>
<path fill="none" stroke="blue" d="M195.02,-327.48C285.95,-315.91 534.66,-283.17 546.1,-269.74 561.58,-251.56 560.12,-235.34 546.1,-216 533.22,-198.24 514.21,-186.32 493.7,-178.35"/>
<polygon fill="blue" stroke="blue" points="494.79,-175.02 484.19,-174.95 492.44,-181.61 494.79,-175.02"/>
</g>
<!-- i1 -->
<g id="node2" class="node">
<title>i1</title>
<ellipse fill="none" stroke="darkviolet" cx="566.1" cy="-332.61" rx="67.35" ry="26.74"/>
<text text-anchor="middle" x="566.1" y="-336.41" font-family="Times New Roman,serif" font-size="14.00">global</text>
<text text-anchor="middle" x="566.1" y="-321.41" font-family="Times New Roman,serif" font-size="14.00">int glob_a = 0</text>
</g>
<!-- i2 -->
<g id="node3" class="node">
<title>i2</title>
<ellipse fill="none" stroke="darkviolet" cx="354.1" cy="-242.87" rx="83.38" ry="26.74"/>
<text text-anchor="middle" x="354.1" y="-246.67" font-family="Times New Roman,serif" font-size="14.00">global</text>
<text text-anchor="middle" x="354.1" y="-231.67" font-family="Times New Roman,serif" font-size="14.00">float glob_b = 1.0</text>
</g>
<!-- i2&#45;&gt;i8 -->
<g id="edge6" class="edge">
<title>i2&#45;&gt;i8</title>
<path fill="none" stroke="green" d="M363.92,-216.05C367.11,-207.65 370.66,-198.32 373.88,-189.85"/>
<polygon fill="green" stroke="green" points="377.19,-191 377.47,-180.41 370.65,-188.51 377.19,-191"/>
</g>
<!-- i3 -->
<g id="node4" class="node">
<title>i3</title>
<ellipse fill="none" stroke="deeppink" cx="496.1" cy="-242.87" rx="41.02" ry="26.74"/>
<text text-anchor="middle" x="496.1" y="-246.67" font-family="Times New Roman,serif" font-size="14.00">arg</text>
<text text-anchor="middle" x="496.1" y="-231.67" font-family="Times New Roman,serif" font-size="14.00">int arg0</text>
</g>
<!-- i3&#45;&gt;i8 -->
<g id="edge5" class="edge">
<title>i3&#45;&gt;i8</title>
<path fill="none" stroke="green" d="M468.7,-222.58C452.93,-211.47 433.02,-197.45 416.47,-185.8"/>
<polygon fill="green" stroke="green" points="418.36,-182.85 408.17,-179.95 414.33,-188.57 418.36,-182.85"/>
</g>
<!-- i4 -->
<g id="node5" class="node">
<title>i4</title>
<ellipse fill="none" stroke="deeppink" cx="432.1" cy="-332.61" rx="48.58" ry="26.74"/>
<text text-anchor="middle" x="432.1" y="-336.41" font-family="Times New Roman,serif" font-size="14.00">arg</text>
<text text-anchor="middle" x="432.1" y="-321.41" font-family="Times New Roman,serif" font-size="14.00">float arg1</text>
</g>
<!-- i5&#45;&gt;i8 -->
<g id="edge3" class="edge">
<title>i5&#45;&gt;i8</title>
<path fill="none" stroke="green" d="M237.11,-228.51C245.04,-224.38 253.89,-219.9 262.1,-216 285.91,-204.68 312.76,-192.92 335.19,-183.35"/>
<polygon fill="green" stroke="green" points="336.67,-186.53 344.51,-179.4 333.94,-180.08 336.67,-186.53"/>
</g>
<!-- i11 -->
<g id="node12" class="node">
<title>i11</title>
<ellipse fill="none" stroke="black" cx="212.1" cy="-18" rx="79.09" ry="18"/>
<text text-anchor="middle" x="212.1" y="-14.3" font-family="Times New Roman,serif" font-size="14.00">arg1 += foo(x + y)</text>
</g>
<!-- i5&#45;&gt;i11 -->
<g id="edge9" class="edge">
<title>i5&#45;&gt;i11</title>
<path fill="none" stroke="green" d="M212.1,-224.75C212.1,-186.35 212.1,-93.04 212.1,-46.43"/>
<polygon fill="green" stroke="green" points="215.6,-46.18 212.1,-36.18 208.6,-46.18 215.6,-46.18"/>
</g>
<!-- i6&#45;&gt;i7 -->
<g id="edge1" class="edge">
<title>i6&#45;&gt;i7</title>
<path fill="none" stroke="green" d="M96.51,-225.91C85.2,-214.32 69.73,-198.48 57.15,-185.59"/>
<polygon fill="green" stroke="green" points="59.62,-183.11 50.13,-178.4 54.61,-188 59.62,-183.11"/>
</g>
<!-- i6&#45;&gt;i8 -->
<g id="edge4" class="edge">
<title>i6&#45;&gt;i8</title>
<path fill="none" stroke="green" d="M135.72,-228.15C143.88,-223.82 153.21,-219.3 162.1,-216 204.73,-200.15 253.76,-187.86 294.89,-179.12"/>
<polygon fill="green" stroke="green" points="295.82,-182.5 304.89,-177.03 294.38,-175.65 295.82,-182.5"/>
</g>
<!-- i6&#45;&gt;i11 -->
<g id="edge10" class="edge">
<title>i6&#45;&gt;i11</title>
<path fill="none" stroke="green" d="M119.61,-225.12C136.88,-186.64 179.48,-91.69 200.28,-45.33"/>
<polygon fill="green" stroke="green" points="203.59,-46.5 204.49,-35.95 197.21,-43.64 203.59,-46.5"/>
</g>
<!-- i7&#45;&gt;i5 -->
<g id="edge2" class="edge">
<title>i7&#45;&gt;i5</title>
<path fill="none" stroke="green" d="M62.13,-173.53C88.04,-183.8 128.1,-200.15 162.1,-216 167.25,-218.4 172.63,-221.05 177.89,-223.7"/>
<polygon fill="green" stroke="green" points="176.62,-226.98 187.12,-228.43 179.82,-220.76 176.62,-226.98"/>
</g>
<!-- i9 -->
<g id="node10" class="node">
<title>i9</title>
<ellipse fill="none" stroke="red" cx="384.1" cy="-90" rx="27" ry="18"/>
<text text-anchor="middle" x="384.1" y="-86.3" font-family="Times New Roman,serif" font-size="14.00">then</text>
</g>
<!-- i8&#45;&gt;i9 -->
<g id="edge7" class="edge">
<title>i8&#45;&gt;i9</title>
<path fill="none" stroke="blue" d="M384.1,-143.7C384.1,-135.98 384.1,-126.71 384.1,-118.11"/>
<polygon fill="blue" stroke="blue" points="387.6,-118.1 384.1,-108.1 380.6,-118.1 387.6,-118.1"/>
</g>
<!-- i12 -->
<g id="node13" class="node">
<title>i12</title>
<ellipse fill="none" stroke="red" cx="274.1" cy="-90" rx="27" ry="18"/>
<text text-anchor="middle" x="274.1" y="-86.3" font-family="Times New Roman,serif" font-size="14.00">else</text>
</g>
<!-- i8&#45;&gt;i12 -->
<g id="edge14" class="edge">
<title>i8&#45;&gt;i12</title>
<path fill="none" stroke="blue" d="M357.75,-144.23C340.75,-133.42 318.69,-119.38 301.5,-108.44"/>
<polygon fill="blue" stroke="blue" points="303.31,-105.44 293,-103.03 299.56,-111.35 303.31,-105.44"/>
</g>
<!-- i10 -->
<g id="node11" class="node">
<title>i10</title>
<ellipse fill="none" stroke="black" cx="384.1" cy="-18" rx="27" ry="18"/>
<text text-anchor="middle" x="384.1" y="-14.3" font-family="Times New Roman,serif" font-size="14.00">y++</text>
</g>
<!-- i9&#45;&gt;i10 -->
<g id="edge12" class="edge">
<title>i9&#45;&gt;i10</title>
<path fill="none" stroke="blue" d="M384.1,-71.7C384.1,-63.98 384.1,-54.71 384.1,-46.11"/>
<polygon fill="blue" stroke="blue" points="387.6,-46.1 384.1,-36.1 380.6,-46.1 387.6,-46.1"/>
</g>
<!-- i9&#45;&gt;i11 -->
<g id="edge13" class="edge">
<title>i9&#45;&gt;i11</title>
<path fill="none" stroke="blue" d="M361.55,-79.61C355.56,-77.13 349.09,-74.45 343.1,-72 315.24,-60.59 283.99,-47.94 259,-37.86"/>
<polygon fill="blue" stroke="blue" points="259.98,-34.48 249.4,-33.99 257.37,-40.98 259.98,-34.48"/>
</g>
<!-- i10&#45;&gt;i6 -->
<g id="edge8" class="edge">
<title>i10&#45;&gt;i6</title>
<path fill="none" stroke="green" d="M358.18,-23.65C327.18,-30.22 274.86,-44.61 238.1,-72 185.26,-111.37 144.58,-179.02 124.98,-215.96"/>
<polygon fill="green" stroke="green" points="121.75,-214.59 120.24,-225.08 127.96,-217.82 121.75,-214.59"/>
</g>
<!-- i11&#45;&gt;i4 -->
<g id="edge11" class="edge">
<title>i11&#45;&gt;i4</title>
<path fill="none" stroke="green" d="M245.6,-34.38C265.17,-44.02 289.89,-57.36 310.1,-72 328.94,-85.65 327.39,-97.4 348.1,-108 424.21,-146.98 471.37,-89.3 537.1,-144 581.1,-180.62 595.88,-221.47 565.1,-269.74 563.79,-271.79 516.52,-293.5 478.7,-310.63"/>
<polygon fill="green" stroke="green" points="477,-307.56 469.33,-314.87 479.88,-313.94 477,-307.56"/>
</g>
</g>
</svg>
