<?xml version="1.0" encoding="UTF-8" standalone="no"?>
<!DOCTYPE svg PUBLIC "-//W3C//DTD SVG 1.1//EN"
 "http://www.w3.org/Graphics/SVG/1.1/DTD/svg11.dtd">
<!-- Generated by graphviz version 2.50.0 (20211204.2007)
 -->
<!-- Pages: 1 -->
<svg width="539pt" height="278pt"
 viewBox="0.00 0.00 538.88 277.74" xmlns="http://www.w3.org/2000/svg" xmlns:xlink="http://www.w3.org/1999/xlink">
<g id="graph0" class="graph" transform="scale(1 1) rotate(0) translate(4 273.74)">
<polygon fill="white" stroke="transparent" points="-4,4 -4,-273.74 534.88,-273.74 534.88,4 -4,4"/>
<!-- i0 -->
<g id="node1" class="node">
<title>i0</title>
<polygon fill="none" stroke="green" points="115.57,-237.31 148.44,-224.87 181.32,-237.31 181.29,-257.43 115.6,-257.43 115.57,-237.31"/>
<text text-anchor="middle" x="148.44" y="-239.17" font-family="Times New Roman,serif" font-size="14.00">start</text>
</g>
<!-- i3 -->
<g id="node4" class="node">
<title>i3</title>
<ellipse fill="none" stroke="black" cx="214.44" cy="-162" rx="38.19" ry="18"/>
<text text-anchor="middle" x="214.44" y="-158.3" font-family="Times New Roman,serif" font-size="14.00">int i = 0</text>
</g>
<!-- i0&#45;&gt;i3 -->
<g id="edge8" class="edge">
<title>i0&#45;&gt;i3</title>
<path fill="none" stroke="blue" d="M159.34,-228.85C168.89,-217.44 183.01,-200.56 194.57,-186.76"/>
<polygon fill="blue" stroke="blue" points="197.29,-188.96 201.02,-179.04 191.92,-184.47 197.29,-188.96"/>
</g>
<!-- i4 -->
<g id="node5" class="node">
<title>i4</title>
<ellipse fill="none" stroke="black" cx="60.44" cy="-162" rx="60.39" ry="18"/>
<text text-anchor="middle" x="60.44" y="-158.3" font-family="Times New Roman,serif" font-size="14.00">int max = 100</text>
</g>
<!-- i0&#45;&gt;i4 -->
<g id="edge9" class="edge">
<title>i0&#45;&gt;i4</title>
<path fill="none" stroke="blue" d="M135.08,-229.89C122.1,-218.26 102.08,-200.31 86.03,-185.93"/>
<polygon fill="blue" stroke="blue" points="88.31,-183.27 78.52,-179.2 83.63,-188.48 88.31,-183.27"/>
</g>
<!-- i5 -->
<g id="node6" class="node">
<title>i5</title>
<ellipse fill="none" stroke="orange" cx="128.44" cy="-90" rx="77.19" ry="18"/>
<text text-anchor="middle" x="128.44" y="-86.3" font-family="Times New Roman,serif" font-size="14.00">do while (i &lt; max)</text>
</g>
<!-- i0&#45;&gt;i5 -->
<g id="edge10" class="edge">
<title>i0&#45;&gt;i5</title>
<path fill="none" stroke="blue" d="M146.27,-225.44C142.86,-199.75 136.24,-149.8 132.1,-118.54"/>
<polygon fill="blue" stroke="blue" points="135.53,-117.79 130.74,-108.34 128.59,-118.71 135.53,-117.79"/>
</g>
<!-- i1 -->
<g id="node2" class="node">
<title>i1</title>
<ellipse fill="none" stroke="darkviolet" cx="278.44" cy="-242.87" rx="67.35" ry="26.74"/>
<text text-anchor="middle" x="278.44" y="-246.67" font-family="Times New Roman,serif" font-size="14.00">global</text>
<text text-anchor="middle" x="278.44" y="-231.67" font-family="Times New Roman,serif" font-size="14.00">int glob_a = 0</text>
</g>
<!-- i2 -->
<g id="node3" class="node">
<title>i2</title>
<ellipse fill="none" stroke="darkviolet" cx="447.44" cy="-242.87" rx="83.38" ry="26.74"/>
<text text-anchor="middle" x="447.44" y="-246.67" font-family="Times New Roman,serif" font-size="14.00">global</text>
<text text-anchor="middle" x="447.44" y="-231.67" font-family="Times New Roman,serif" font-size="14.00">float glob_b = 1.0</text>
</g>
<!-- i3&#45;&gt;i5 -->
<g id="edge1" class="edge">
<title>i3&#45;&gt;i5</title>
<path fill="none" stroke="green" d="M196.21,-146.15C184.69,-136.78 169.58,-124.49 156.56,-113.88"/>
<polygon fill="green" stroke="green" points="158.73,-111.14 148.76,-107.54 154.31,-116.57 158.73,-111.14"/>
</g>
<!-- i6 -->
<g id="node7" class="node">
<title>i6</title>
<ellipse fill="none" stroke="black" cx="233.44" cy="-18" rx="83.39" ry="18"/>
<text text-anchor="middle" x="233.44" y="-14.3" font-family="Times New Roman,serif" font-size="14.00">glob_a += i * foo(i)</text>
</g>
<!-- i3&#45;&gt;i6 -->
<g id="edge3" class="edge">
<title>i3&#45;&gt;i6</title>
<path fill="none" stroke="green" d="M216.74,-143.87C219.97,-119.67 225.92,-75.21 229.78,-46.39"/>
<polygon fill="green" stroke="green" points="233.29,-46.57 231.14,-36.19 226.35,-45.64 233.29,-46.57"/>
</g>
<!-- i4&#45;&gt;i5 -->
<g id="edge2" class="edge">
<title>i4&#45;&gt;i5</title>
<path fill="none" stroke="green" d="M76.56,-144.41C84.99,-135.73 95.47,-124.95 104.8,-115.34"/>
<polygon fill="green" stroke="green" points="107.52,-117.57 111.97,-107.96 102.49,-112.69 107.52,-117.57"/>
</g>
<!-- i5&#45;&gt;i6 -->
<g id="edge6" class="edge">
<title>i5&#45;&gt;i6</title>
<path fill="none" stroke="blue" d="M152.8,-72.76C166.88,-63.38 184.79,-51.44 200.16,-41.19"/>
<polygon fill="blue" stroke="blue" points="202.48,-43.85 208.86,-35.39 198.6,-38.02 202.48,-43.85"/>
</g>
<!-- i7 -->
<g id="node8" class="node">
<title>i7</title>
<ellipse fill="none" stroke="black" cx="105.44" cy="-18" rx="27" ry="18"/>
<text text-anchor="middle" x="105.44" y="-14.3" font-family="Times New Roman,serif" font-size="14.00">i++</text>
</g>
<!-- i5&#45;&gt;i7 -->
<g id="edge7" class="edge">
<title>i5&#45;&gt;i7</title>
<path fill="none" stroke="blue" d="M122.76,-71.7C120.2,-63.9 117.11,-54.51 114.26,-45.83"/>
<polygon fill="blue" stroke="blue" points="117.51,-44.51 111.06,-36.1 110.86,-46.7 117.51,-44.51"/>
</g>
<!-- i6&#45;&gt;i1 -->
<g id="edge4" class="edge">
<title>i6&#45;&gt;i1</title>
<path fill="none" stroke="green" d="M237.61,-36.33C243.32,-60.42 253.77,-105.39 261.44,-144 265.51,-164.46 269.53,-187.43 272.64,-205.97"/>
<polygon fill="green" stroke="green" points="269.22,-206.76 274.31,-216.05 276.12,-205.61 269.22,-206.76"/>
</g>
<!-- i7&#45;&gt;i3 -->
<g id="edge5" class="edge">
<title>i7&#45;&gt;i3</title>
<path fill="none" stroke="green" d="M126.82,-29.22C158.38,-44.34 213.81,-70.98 214.44,-72 225.94,-90.37 224.84,-115.33 221.49,-134.14"/>
<polygon fill="green" stroke="green" points="218.02,-133.64 219.41,-144.14 224.88,-135.07 218.02,-133.64"/>
</g>
</g>
</svg>
