<?xml version="1.0" encoding="UTF-8" standalone="no"?>
<!DOCTYPE svg PUBLIC "-//W3C//DTD SVG 1.1//EN"
 "http://www.w3.org/Graphics/SVG/1.1/DTD/svg11.dtd">
<!-- Generated by graphviz version 2.50.0 (20211204.2007)
 -->
<!-- Pages: 1 -->
<svg width="539pt" height="278pt"
 viewBox="0.00 0.00 538.88 277.74" xmlns="http://www.w3.org/2000/svg" xmlns:xlink="http://www.w3.org/1999/xlink">
<g id="graph0" class="graph" transform="scale(1 1) rotate(0) translate(4 273.74)">
<polygon fill="white" stroke="transparent" points="-4,4 -4,-273.74 534.88,-273.74 534.88,4 -4,4"/>
<!-- i0 -->
<g id="node1" class="node">
<title>i0</title>
<polygon fill="none" stroke="green" points="115.57,-237.31 148.44,-224.87 181.32,-237.31 181.29,-257.43 115.6,-257.43 115.57,-237.31"/>
<text text-anchor="middle" x="148.44" y="-239.17" font-family="Times New Roman,serif" font-size="14.00">start</text>
</g>
<!-- i3 -->
<g id="node4" class="node">
<title>i3</title>
<ellipse fill="none" stroke="black" cx="214.44" cy="-162" rx="38.19" ry="18"/>
<text text-anchor="middle" x="214.44" y="-158.3" font-family="Times New Roman,serif" font-size="14.00">int i = 0</text>
</g>
<!-- i0&#45;&gt;i3 -->
<g id="edge8" class="edge">
<title>i0&#45;&gt;i3</title>
<path fill="none" stroke="blue" d="M159.34,-228.85C168.89,-217.44 183.01,-200.56 194.57,-186.76"/>
<polygon fill="blue" stroke="blue" points="197.29,-188.96 201.02,-179.04 191.92,-184.47 197.29,-188.96"/>
</g>
<!-- i4 -->
<g id="node5" class="node">
<title>i4</title>
<ellipse fill="none" stroke="black" cx="60.44" cy="-162" rx="60.39" ry="18"/>
<text text-anchor="middle" x="60.44" y="-158.3" font-family="Times New Roman,serif" font-size="14.00">int max = 100</text>
</g>
<!-- i0&#45;&gt;i4 -->
<g id="edge9" class="edge">
<title>i0&#45;&gt;i4</title>
<path fill="none" stroke="blue" d="M135.08,-229.89C122.1,-218.26 102.08,-200.31 86.03,-185.93"/>
<polygon fill="blue" stroke="blue" points="88.31,-183.27 78.52,-179.2 83.63,-188.48 88.31,-183.27"/>
</g>
<!-- i5 -->
<g id="node6" class="node">
<title>i5</title>
<ellipse fill="none" stroke="orange" cx="134.44" cy="-90" rx="64.99" ry="18"/>
<text text-anchor="middle" x="134.44" y="-86.3" font-family="Times New Roman,serif" font-size="14.00">while (i &lt; max)</text>
</g>
<!-- i0&#45;&gt;i5 -->
<g id="edge10" class="edge">
<title>i0&#45;&gt;i5</title>
<path fill="none" stroke="blue" d="M146.92,-225.44C144.54,-199.75 139.9,-149.8 137,-118.54"/>
<polygon fill="blue" stroke="blue" points="140.46,-117.97 136.05,-108.34 133.49,-118.62 140.46,-117.97"/>
</g>
<!-- i1 -->
<g id="node2" class="node">
<title>i1</title>
<ellipse fill="none" stroke="darkviolet" cx="278.44" cy="-242.87" rx="67.35" ry="26.74"/>
<text text-anchor="middle" x="278.44" y="-246.67" font-family="Times New Roman,serif" font-size="14.00">global</text>
<text text-anchor="middle" x="278.44" y="-231.67" font-family="Times New Roman,serif" font-size="14.00">int glob_a = 0</text>
</g>
<!-- i2 -->
<g id="node3" class="node">
<title>i2</title>
<ellipse fill="none" stroke="darkviolet" cx="447.44" cy="-242.87" rx="83.38" ry="26.74"/>
<text text-anchor="middle" x="447.44" y="-246.67" font-family="Times New Roman,serif" font-size="14.00">global</text>
<text text-anchor="middle" x="447.44" y="-231.67" font-family="Times New Roman,serif" font-size="14.00">float glob_b = 1.0</text>
</g>
<!-- i3&#45;&gt;i5 -->
<g id="edge1" class="edge">
<title>i3&#45;&gt;i5</title>
<path fill="none" stroke="green" d="M197.09,-145.81C186.46,-136.51 172.64,-124.42 160.7,-113.97"/>
<polygon fill="green" stroke="green" points="163,-111.33 153.16,-107.38 158.39,-116.6 163,-111.33"/>
</g>
<!-- i6 -->
<g id="node7" class="node">
<title>i6</title>
<ellipse fill="none" stroke="black" cx="227.44" cy="-18" rx="83.39" ry="18"/>
<text text-anchor="middle" x="227.44" y="-14.3" font-family="Times New Roman,serif" font-size="14.00">glob_a += i * foo(i)</text>
</g>
<!-- i3&#45;&gt;i6 -->
<g id="edge3" class="edge">
<title>i3&#45;&gt;i6</title>
<path fill="none" stroke="green" d="M216.01,-143.87C218.23,-119.67 222.3,-75.21 224.94,-46.39"/>
<polygon fill="green" stroke="green" points="228.44,-46.47 225.87,-36.19 221.47,-45.83 228.44,-46.47"/>
</g>
<!-- i4&#45;&gt;i5 -->
<g id="edge2" class="edge">
<title>i4&#45;&gt;i5</title>
<path fill="none" stroke="green" d="M77.98,-144.41C87.47,-135.43 99.36,-124.19 109.77,-114.34"/>
<polygon fill="green" stroke="green" points="112.17,-116.88 117.03,-107.47 107.36,-111.8 112.17,-116.88"/>
</g>
<!-- i5&#45;&gt;i6 -->
<g id="edge6" class="edge">
<title>i5&#45;&gt;i6</title>
<path fill="none" stroke="blue" d="M156.01,-72.76C168.37,-63.47 184.05,-51.66 197.58,-41.48"/>
<polygon fill="blue" stroke="blue" points="199.78,-44.2 205.67,-35.39 195.58,-38.61 199.78,-44.2"/>
</g>
<!-- i7 -->
<g id="node8" class="node">
<title>i7</title>
<ellipse fill="none" stroke="black" cx="99.44" cy="-18" rx="27" ry="18"/>
<text text-anchor="middle" x="99.44" y="-14.3" font-family="Times New Roman,serif" font-size="14.00">i++</text>
</g>
<!-- i5&#45;&gt;i7 -->
<g id="edge7" class="edge">
<title>i5&#45;&gt;i7</title>
<path fill="none" stroke="blue" d="M125.97,-72.05C121.83,-63.77 116.75,-53.62 112.16,-44.42"/>
<polygon fill="blue" stroke="blue" points="115.2,-42.69 107.6,-35.31 108.94,-45.82 115.2,-42.69"/>
</g>
<!-- i6&#45;&gt;i1 -->
<g id="edge4" class="edge">
<title>i6&#45;&gt;i1</title>
<path fill="none" stroke="green" d="M232.69,-36.26C239.86,-60.26 252.8,-105.14 261.44,-144 265.97,-164.36 270.02,-187.32 273.02,-205.89"/>
<polygon fill="green" stroke="green" points="269.6,-206.66 274.63,-215.98 276.51,-205.56 269.6,-206.66"/>
</g>
<!-- i7&#45;&gt;i3 -->
<g id="edge5" class="edge">
<title>i7&#45;&gt;i3</title>
<path fill="none" stroke="green" d="M120.91,-29.11C152.28,-43.92 207.1,-70.01 208.44,-72 220.58,-90.01 221.22,-115 219.32,-133.92"/>
<polygon fill="green" stroke="green" points="215.83,-133.62 218.01,-143.99 222.77,-134.52 215.83,-133.62"/>
</g>
</g>
</svg>
